<svg width="50" height="50" viewBox="0 0 50 50" fill="none" xmlns="http://www.w3.org/2000/svg">
<rect width="50" height="50" rx="8" fill="#232222"/>
<path d="M20.17 19.77V18H24.04V33H20.17V31.23C19.01 32.69 17.38 33.42 15.28 33.42C13.28 33.42 11.56 32.66 10.12 31.14C8.7 29.6 7.99 27.72 7.99 25.5C7.99 23.3 8.7 21.43 10.12 19.89C11.56 18.35 13.28 17.58 15.28 17.58C17.38 17.58 19.01 18.31 20.17 19.77ZM13.03 28.56C13.81 29.34 14.8 29.73 16 29.73C17.2 29.73 18.19 29.34 18.97 28.56C19.77 27.76 20.17 26.74 20.17 25.5C20.17 24.26 19.77 23.25 18.97 22.47C18.19 21.67 17.2 21.27 16 21.27C14.8 21.27 13.81 21.67 13.03 22.47C12.25 23.25 11.86 24.26 11.86 25.5C11.86 26.74 12.25 27.76 13.03 28.56ZM34.6893 33.42C32.4293 33.42 30.5393 32.66 29.0193 31.14C27.5193 29.62 26.7693 27.74 26.7693 25.5C26.7693 23.26 27.5193 21.38 29.0193 19.86C30.5393 18.34 32.4293 17.58 34.6893 17.58C36.1493 17.58 37.4793 17.93 38.6793 18.63C39.8793 19.33 40.7893 20.27 41.4093 21.45L38.0793 23.4C37.7793 22.78 37.3193 22.29 36.6993 21.93C36.0993 21.57 35.4193 21.39 34.6593 21.39C33.4993 21.39 32.5393 21.78 31.7793 22.56C31.0193 23.32 30.6393 24.3 30.6393 25.5C30.6393 26.66 31.0193 27.64 31.7793 28.44C32.5393 29.2 33.4993 29.58 34.6593 29.58C35.4393 29.58 36.1293 29.41 36.7293 29.07C37.3493 28.71 37.8093 28.22 38.1093 27.6L41.4693 29.52C40.8093 30.72 39.8693 31.67 38.6493 32.37C37.4493 33.07 36.1293 33.42 34.6893 33.42Z" fill="#7CD5FB"/>
</svg>
