<svg width="1000" height="1000" viewBox="0 0 1000 1000" fill="none" xmlns="http://www.w3.org/2000/svg">
<circle cx="500" cy="500" r="500" fill="white"/>
<g filter="url(#filter0_i_2_9)">
<path d="M248.6 587.2V335.2H335.4V561.3C335.4 579.967 340.067 594.2 349.4 604C358.733 613.8 370.867 618.7 385.8 618.7C411 618.7 431.767 605.633 448.1 579.5C464.9 553.367 473.3 518.833 473.3 475.9V335.2H560.1V688H473.3V631.3C460.233 649.967 443.2 665.133 422.2 676.8C401.2 688 379.5 693.6 357.1 693.6C323.967 693.6 297.6 684.5 278 666.3C258.4 647.633 248.6 621.267 248.6 587.2ZM653.282 676.1C641.615 663.967 635.782 649.033 635.782 631.3C635.782 613.567 641.615 598.867 653.282 587.2C665.415 575.067 680.349 569 698.082 569C715.815 569 730.515 575.067 742.182 587.2C754.315 598.867 760.382 613.567 760.382 631.3C760.382 649.033 754.315 663.967 742.182 676.1C730.515 687.767 715.815 693.6 698.082 693.6C680.349 693.6 665.415 687.767 653.282 676.1Z" fill="#8CEDA7"/>
</g>
<defs>
<filter id="filter0_i_2_9" x="248.6" y="335.2" width="515.782" height="362.4" filterUnits="userSpaceOnUse" color-interpolation-filters="sRGB">
<feFlood flood-opacity="0" result="BackgroundImageFix"/>
<feBlend mode="normal" in="SourceGraphic" in2="BackgroundImageFix" result="shape"/>
<feColorMatrix in="SourceAlpha" type="matrix" values="0 0 0 0 0 0 0 0 0 0 0 0 0 0 0 0 0 0 127 0" result="hardAlpha"/>
<feOffset dx="10" dy="10"/>
<feGaussianBlur stdDeviation="2"/>
<feComposite in2="hardAlpha" operator="arithmetic" k2="-1" k3="1"/>
<feColorMatrix type="matrix" values="0 0 0 0 0.364826 0 0 0 0 0.51745 0 0 0 0 0.658333 0 0 0 0.36 0"/>
<feBlend mode="normal" in2="shape" result="effect1_innerShadow_2_9"/>
</filter>
</defs>
</svg>
